# xmcd CD database file
#
# Track frame offsets:
#	150
#	17121
#	35628
#	55817
#	71709
#	90135
#	114114
#	126827
#	164019
#
# Disc length: 2431 seconds
#
# Revision: 0
# Processed by: cddbd v1.5.1PL2 Copyright (c) Steve Scherf et al.
# Submitted via: CDex 1.51
#
DISCID=70097d09
DTITLE=Kenny Burrell - Night Song
DYEAR=1968
DGENRE=Jazz
TTITLE0=Night Song
TTITLE1=Blues for Wes
TTITLE2=Namely you
TTITLE3=Love you Madly
TTITLE4=Just A-Sittin' and A-Rockin'
TTITLE5=The Shadow of your Smile
TTITLE6=Brother Where are you ?
TTITLE7=Night Hawk
TTITLE8=Teach me Tonight
EXTD=YEAR: 1968
EXTT0=
EXTT1=
EXTT2=
EXTT3=
EXTT4=
EXTT5=
EXTT6=
EXTT7=
EXTT8=
PLAYORDER=
